HIERARCHY
ROOT root
{
	OFFSET 0.000000 0.000000 0.000000
	CHANNELS 6 Xposition Yposition Zposition Zrotation Yrotation Xrotation
	JOINT lhip
	{
		OFFSET 0.058581 -0.082280 -0.017664
		CHANNELS 3 Zrotation Yrotation Xrotation
		JOINT lknee
		{
			OFFSET 0.043451 -0.386469 0.008037
			CHANNELS 3 Zrotation Yrotation Xrotation
			JOINT lankle
			{
				OFFSET -0.014790 -0.426874 -0.037428
				CHANNELS 3 Zrotation Yrotation Xrotation
				JOINT ltoe
				{
					OFFSET 0.041054 -0.060286 0.122042
					CHANNELS 3 Zrotation Yrotation Xrotation
					End Site
					{
						OFFSET 0.000000 0.000000 0.000000
					}
				}
			}
		}
	}
	JOINT rhip
	{
		OFFSET -0.060310 -0.090513 -0.013543
		CHANNELS 3 Zrotation Yrotation Xrotation
		JOINT rknee
		{
			OFFSET -0.043257 -0.383688 -0.004843
			CHANNELS 3 Zrotation Yrotation Xrotation
			JOINT rankle
			{
				OFFSET 0.019056 -0.420046 -0.034562
				CHANNELS 3 Zrotation Yrotation Xrotation
				JOINT rtoe
				{
					OFFSET -0.034840 -0.062106 0.130323
					CHANNELS 3 Zrotation Yrotation Xrotation
					End Site
					{
						OFFSET 0.000000 0.000000 0.000000
					}
				}
			}
		}
	}
	JOINT lowerback
	{
		OFFSET 0.004439 0.124404 -0.038385
		CHANNELS 3 Zrotation Yrotation Xrotation
		JOINT upperback
		{
			OFFSET 0.004488 0.137956 0.026820
			CHANNELS 3 Zrotation Yrotation Xrotation
			JOINT chest
			{
				OFFSET -0.002265 0.056032 0.002855
				CHANNELS 3 Zrotation Yrotation Xrotation
				JOINT lowerneck
				{
					OFFSET -0.013390 0.211636 -0.033468
					CHANNELS 3 Zrotation Yrotation Xrotation
					JOINT upperneck
					{
						OFFSET 0.010113 0.088937 0.050410
						CHANNELS 3 Zrotation Yrotation Xrotation
						End Site
						{
							OFFSET 0.000000 0.000000 0.000000
						}
					}
				}
				JOINT lclavicle
				{
					OFFSET 0.071702 0.114000 -0.018898
					CHANNELS 3 Zrotation Yrotation Xrotation
					JOINT lshoulder
					{
						OFFSET 0.122921 0.045205 -0.019046
						CHANNELS 3 Zrotation Yrotation Xrotation
						JOINT lelbow
						{
							OFFSET 0.255332 -0.015649 -0.022946
							CHANNELS 3 Zrotation Yrotation Xrotation
							JOINT lwrist
							{
								OFFSET 0.265709 0.012698 -0.007375
								CHANNELS 3 Zrotation Yrotation Xrotation
								End Site
								{
									OFFSET 0.000000 0.000000 0.000000
								}
							}
						}
					}
				}
				JOINT rclavicle
				{
					OFFSET -0.082954 0.112472 -0.023707
					CHANNELS 3 Zrotation Yrotation Xrotation
					JOINT rshoulder
					{
						OFFSET -0.113228 0.046853 -0.008472
						CHANNELS 3 Zrotation Yrotation Xrotation
						JOINT relbow
						{
							OFFSET -0.260127 -0.014369 -0.031269
							CHANNELS 3 Zrotation Yrotation Xrotation
							JOINT rwrist
							{
								OFFSET -0.269108 0.006794 -0.006027
								CHANNELS 3 Zrotation Yrotation Xrotation
								End Site
								{
									OFFSET 0.000000 0.000000 0.000000
								}
							}
						}
					}
				}
			}
		}
	}
}
MOTION
Frames: 7
Frame Time: 0.033333
0.374988 0.766804 1.002366 78.102490 7.203736 86.601323 7.037454 -2.861929 9.819345 -0.071535 -0.776894 7.102681 9.505798 7.378109 -30.554372 0.000000 -0.000000 0.000000 4.961614 4.144806 -3.710684 3.649044 3.768802 11.004932 4.675512 3.339185 -7.570966 0.000000 -0.000000 0.000000 1.166737 -2.296807 -6.479255 7.011372 -7.944425 4.929883 0.831465 -1.940761 3.454465 -5.040793 8.306517 5.746158 3.442999 -0.741680 6.818681 -3.072106 -11.125048 -5.262298 -91.998250 -37.864259 39.338135 -173.398957 -60.860706 -157.648565 35.943503 -11.110834 -26.770220 3.333183 -5.419407 -2.285248 69.022994 0.900267 17.337652 173.930435 61.365463 -147.549808 -13.102130 21.401499 -11.915413 
0.375828 0.763502 1.003141 77.730720 7.495807 86.478767 7.428749 -2.735123 10.526329 0.063457 -0.450535 6.397815 9.313548 7.209010 -30.476755 0.000000 -0.000000 0.000000 5.003465 3.966936 -2.198467 4.275657 3.867895 8.305910 4.798075 3.818703 -6.197631 0.000000 -0.000000 0.000000 1.110117 -2.206438 -6.547051 7.283617 -8.269932 5.142995 1.205159 -1.761782 3.244950 -5.522104 8.116402 5.258494 3.802748 -0.928480 7.196122 -3.119030 -11.793122 -5.141219 -92.074412 -37.937173 38.972052 -173.417447 -60.919092 -157.480667 35.712191 -11.855981 -26.306604 3.751218 -5.445276 -1.889589 68.569976 0.291453 15.627534 174.176784 61.199607 -147.182294 -11.764060 21.576087 -12.171004 
0.375589 0.762452 1.003071 77.655860 7.494631 86.536680 7.459570 -2.748242 10.532434 0.062474 -0.404753 6.310522 9.334902 7.251938 -30.437652 0.000000 -0.000000 0.000000 4.978822 4.015979 -2.119573 4.377097 3.933312 8.033081 4.861026 3.768625 -6.084667 0.000000 -0.000000 0.000000 1.131414 -2.218208 -6.615079 7.324326 -8.247287 5.103892 1.161512 -1.850314 3.190744 -5.320405 8.122899 5.467646 3.638274 -0.882383 7.070025 -3.154498 -11.684638 -5.050264 -92.108632 -37.992060 39.222010 -173.583883 -60.997876 -157.264307 35.849129 -11.728896 -26.272817 3.769791 -5.532513 -1.926869 68.623408 0.231556 16.037531 174.732783 61.397055 -146.713457 -12.440488 21.552145 -12.137983 
0.376759 0.759355 1.002894 77.004123 7.921901 87.622707 8.204979 -2.747953 10.111639 -0.117427 0.775873 5.322771 9.832058 6.675566 -30.246087 0.000000 -0.000000 0.000000 4.735623 3.527002 -2.020621 5.578718 4.517925 5.395387 4.782236 4.608905 -4.469292 0.000000 -0.000000 0.000000 1.517812 -1.833330 -8.713387 7.651334 -8.505822 6.036149 1.331830 -1.210390 2.841394 -6.741659 7.170531 4.651377 4.954948 -0.974883 7.812594 -3.065954 -12.678062 -4.964775 -92.030300 -37.542625 38.531187 -172.751744 -60.270111 -158.635053 35.004567 -12.716530 -25.628166 3.920011 -5.093759 1.038283 68.544978 0.262828 14.186551 177.343988 59.700634 -143.815108 -8.734099 22.343014 -9.638903 
0.376926 0.757922 1.003032 76.783922 7.882304 87.741520 8.199324 -2.366214 10.218119 -0.110865 0.305786 5.061694 9.589756 7.003976 -30.362597 0.000000 -0.000000 0.000000 4.549282 3.558570 -1.689258 5.801520 4.619546 4.493054 5.502822 4.670343 -4.122875 0.000000 -0.000000 0.000000 1.407955 -1.888648 -8.954580 7.905299 -8.386348 5.722071 1.075294 -1.720723 2.520754 -4.889973 8.089492 5.850002 3.268205 -1.301868 7.422464 -3.593252 -11.610990 -4.537986 -92.353283 -38.019085 40.020272 -173.120392 -60.975762 -157.833097 36.315874 -11.544752 -25.987362 4.517663 -6.090471 -1.134565 67.626027 0.320319 15.431341 174.439780 60.894619 -146.630742 -13.014219 21.454776 -12.063566 
0.376900 0.757818 1.003010 76.773879 7.888738 87.751699 8.219022 -2.346059 10.228607 -0.121228 0.321053 5.024836 9.591045 6.981131 -30.359613 0.000000 -0.000000 0.000000 4.534139 3.542968 -1.639091 5.835108 4.623146 4.371522 5.525719 4.693188 -4.075300 0.000000 -0.000000 0.000000 1.413418 -1.884054 -8.952017 7.914457 -8.378868 5.691334 1.075026 -1.726247 2.506844 -4.866131 8.078559 5.844162 3.238596 -1.287043 7.464200 -3.623886 -11.580227 -4.535276 -92.366691 -38.019896 40.055531 -173.117492 -60.988596 -157.838220 36.308204 -11.561254 -25.985488 4.536709 -6.116259 -1.155275 67.617798 0.332767 15.500405 174.474488 60.898979 -146.613420 -13.053179 21.469597 -12.051181 
0.376590 0.756276 1.002552 76.735250 8.069952 88.036708 8.850066 -1.749649 10.236696 -0.420987 0.592403 4.364819 9.620036 6.235115 -30.415611 0.000000 -0.000000 0.000000 4.121922 2.915553 -0.402875 6.729961 4.627635 1.287145 6.102906 5.370155 -2.859663 0.000000 -0.000000 0.000000 1.357018 -1.720976 -8.754198 8.268625 -8.294517 4.894043 1.135392 -1.811298 2.109201 -4.150559 7.987879 5.049683 2.478608 -1.340093 9.227528 -4.467011 -10.967669 -4.389713 -92.463356 -38.380956 40.570049 -172.792975 -61.227510 -157.730939 35.931270 -12.481594 -25.524421 5.333144 -6.587697 -1.261774 67.284330 1.211531 16.620698 174.748122 60.801715 -146.489080 -13.529137 21.884067 -12.258477 
